<?xml version="1.0" encoding="utf-8"?>
<!-- Generator: Adobe Illustrator 23.0.3, SVG Export Plug-In . SVG Version: 6.00 Build 0)  -->
<svg version="1.1" id="Ebene_1" xmlns="http://www.w3.org/2000/svg" xmlns:xlink="http://www.w3.org/1999/xlink" x="0px" y="0px"
	 viewBox="0 0 841.89 595.28" style="enable-background:new 0 0 841.89 595.28;" xml:space="preserve">
<style type="text/css">
	.st0{fill:#FFFFFF;}
	.st1{fill:none;stroke:#000000;stroke-miterlimit:10;}
	.st2{fill:#FFFFFF;stroke:#000000;stroke-miterlimit:10;}
	.st3{fill:none;stroke:#000000;stroke-miterlimit:10;stroke-dasharray:7.9744,7.9744;}
	.st4{fill:#FFFFFF;stroke:#000000;stroke-miterlimit:10;stroke-dasharray:6;}
</style>
<g>
	<line class="st0" x1="711.4" y1="277.8" x2="768.5" y2="145.93"/>
	<g>
		<line class="st1" x1="711.4" y1="277.8" x2="768.07" y2="146.93"/>
		<g>
			<polygon points="770.51,151.59 769.56,151.93 767.92,147.28 763.4,149.26 763,148.34 768.5,145.93 			"/>
		</g>
	</g>
</g>
<g>
	<line class="st0" x1="711.4" y1="277.8" x2="768.5" y2="196.33"/>
	<g>
		<line class="st1" x1="711.4" y1="277.8" x2="767.88" y2="197.22"/>
		<g>
			<polygon points="769.32,202.28 768.33,202.42 767.66,197.54 762.84,198.57 762.63,197.59 768.5,196.33 			"/>
		</g>
	</g>
</g>
<g>
	<line class="st0" x1="711.4" y1="277.8" x2="768.5" y2="246.73"/>
	<g>
		<line class="st1" x1="711.4" y1="277.8" x2="767.55" y2="247.25"/>
		<g>
			<polygon points="766.59,252.43 765.64,252.11 767.21,247.44 762.43,246.21 762.68,245.24 768.5,246.73 			"/>
		</g>
	</g>
</g>
<g>
	<line class="st0" x1="711.4" y1="317.48" x2="768.5" y2="399"/>
	<g>
		<line class="st1" x1="711.4" y1="317.48" x2="767.88" y2="398.11"/>
		<g>
			<polygon points="762.63,397.74 762.84,396.77 767.66,397.8 768.33,392.91 769.33,393.05 768.5,399 			"/>
		</g>
	</g>
</g>
<g>
	<g>
		<rect x="14.81" y="193.44" class="st2" width="109.41" height="61.4"/>
		<g>
			<rect x="21.16" y="197.48" class="st2" width="14.56" height="14.56"/>
			<rect x="41.03" y="197.48" class="st2" width="14.56" height="14.56"/>
			<rect x="60.91" y="197.48" class="st2" width="14.56" height="14.56"/>
			<rect x="83.44" y="197.48" class="st2" width="14.56" height="14.56"/>
			<rect x="103.32" y="197.48" class="st2" width="14.56" height="14.56"/>
			<g>
				<line class="st0" x1="48.31" y1="238.21" x2="28.44" y2="212.04"/>
				<g>
					<line class="st1" x1="48.31" y1="238.21" x2="29.03" y2="212.82"/>
					<g>
						<polygon points="33.76,212.97 33.61,213.85 29.24,213.09 28.8,217.51 27.9,217.42 28.44,212.04 						"/>
					</g>
				</g>
			</g>
			<g>
				<line class="st0" x1="48.31" y1="238.21" x2="68.19" y2="212.04"/>
				<g>
					<line class="st1" x1="48.31" y1="238.21" x2="67.6" y2="212.82"/>
					<g>
						<polygon points="68.73,217.42 67.83,217.51 67.39,213.09 63.02,213.85 62.87,212.97 68.19,212.04 						"/>
					</g>
				</g>
			</g>
			<g>
				<line class="st0" x1="48.31" y1="238.21" x2="48.31" y2="212.04"/>
				<g>
					<line class="st1" x1="48.31" y1="238.21" x2="48.31" y2="213.02"/>
					<g>
						<polygon points="52,216 51.34,216.61 48.32,213.36 45.29,216.61 44.63,216 48.32,212.04 						"/>
					</g>
				</g>
			</g>
			<polygon class="st2" points="106.73,227.69 94.58,227.69 88.51,238.21 94.58,248.73 106.73,248.73 112.81,238.21 			"/>
			<g>
				<line class="st0" x1="48.31" y1="238.21" x2="88.51" y2="238.21"/>
				<g>
					<line class="st1" x1="48.31" y1="238.21" x2="87.53" y2="238.21"/>
					<g>
						<polygon points="84.55,241.89 83.94,241.23 87.19,238.21 83.94,235.19 84.55,234.53 88.51,238.21 						"/>
					</g>
				</g>
			</g>
			<circle class="st2" cx="48.31" cy="238.21" r="12.59"/>
			<g>
				<line class="st0" x1="90.72" y1="212.04" x2="94.58" y2="227.69"/>
				<g>
					<line class="st1" x1="90.72" y1="212.04" x2="94.35" y2="226.74"/>
					<g>
						<polygon points="90.06,224.73 90.55,223.98 94.27,226.41 96.42,222.53 97.21,222.97 94.58,227.69 						"/>
					</g>
				</g>
			</g>
			<g>
				<line class="st0" x1="110.6" y1="212.04" x2="106.73" y2="227.69"/>
				<g>
					<line class="st1" x1="110.6" y1="212.04" x2="106.97" y2="226.74"/>
					<g>
						<polygon points="104.11,222.97 104.9,222.53 107.05,226.41 110.76,223.97 111.25,224.73 106.73,227.69 						"/>
					</g>
				</g>
			</g>
		</g>
	</g>
	<g>
		<g>
			<g>
				<path d="M61.24,173.24h-1.71v-9.86c0-0.78,0.05-1.73,0.14-2.86h-0.04c-0.16,0.66-0.31,1.14-0.44,1.43l-5.02,11.3h-0.84
					l-5.01-11.22c-0.14-0.33-0.29-0.83-0.44-1.51h-0.04c0.05,0.59,0.08,1.55,0.08,2.88v9.84h-1.66v-14.7h2.28l4.51,10.25
					c0.35,0.79,0.57,1.37,0.68,1.76h0.06c0.29-0.81,0.53-1.41,0.71-1.8l4.6-10.21h2.15V173.24z"/>
				<path d="M69.27,173.49c-1.55,0-2.79-0.49-3.72-1.47c-0.93-0.98-1.39-2.28-1.39-3.9c0-1.76,0.48-3.14,1.45-4.13
					s2.27-1.49,3.91-1.49c1.57,0,2.79,0.48,3.67,1.45c0.88,0.96,1.32,2.3,1.32,4.01c0,1.67-0.47,3.02-1.42,4.02
					C72.13,172.98,70.86,173.49,69.27,173.49z M69.4,163.91c-1.08,0-1.93,0.37-2.56,1.1s-0.94,1.75-0.94,3.04
					c0,1.24,0.32,2.23,0.95,2.94s1.49,1.08,2.55,1.08c1.09,0,1.92-0.35,2.51-1.06c0.58-0.7,0.88-1.71,0.88-3
					c0-1.31-0.29-2.32-0.88-3.04C71.32,164.27,70.48,163.91,69.4,163.91z"/>
				<path d="M86.15,173.24h-1.68v-1.78h-0.04c-0.78,1.35-1.98,2.03-3.61,2.03c-1.32,0-2.37-0.47-3.16-1.41
					c-0.79-0.94-1.18-2.22-1.18-3.84c0-1.74,0.44-3.13,1.31-4.17s2.04-1.57,3.5-1.57c1.44,0,2.49,0.57,3.15,1.7h0.04v-6.5h1.68
					V173.24z M84.47,168.49v-1.55c0-0.85-0.28-1.57-0.84-2.15s-1.27-0.88-2.13-0.88c-1.03,0-1.83,0.38-2.42,1.13
					s-0.88,1.79-0.88,3.12c0,1.21,0.28,2.17,0.85,2.87c0.56,0.7,1.32,1.05,2.27,1.05c0.94,0,1.7-0.34,2.28-1.02
					C84.18,170.38,84.47,169.53,84.47,168.49z"/>
				<path d="M97.99,168.41h-7.41c0.03,1.17,0.34,2.07,0.94,2.71s1.43,0.95,2.48,0.95c1.18,0,2.27-0.39,3.26-1.17v1.58
					c-0.92,0.67-2.14,1-3.66,1c-1.48,0-2.65-0.48-3.5-1.43c-0.85-0.95-1.27-2.29-1.27-4.02c0-1.63,0.46-2.96,1.39-3.99
					c0.93-1.03,2.08-1.54,3.45-1.54s2.44,0.44,3.19,1.33s1.13,2.12,1.13,3.7V168.41z M96.27,166.99c-0.01-0.97-0.24-1.73-0.7-2.27
					c-0.46-0.54-1.1-0.81-1.92-0.81c-0.79,0-1.47,0.28-2.02,0.85s-0.9,1.31-1.03,2.23H96.27z"/>
				<path d="M102.22,173.24h-1.68V157.7h1.68V173.24z"/>
			</g>
		</g>
	</g>
</g>
<g>
	<g>
		<rect x="47.5" y="378.69" class="st2" width="36.41" height="49.94"/>
		<rect x="51.31" y="373.01" class="st2" width="36.41" height="49.94"/>
		<rect x="55.12" y="367.32" class="st2" width="36.41" height="49.94"/>
		<g>
			<line class="st2" x1="59.42" y1="373.01" x2="87.72" y2="373.01"/>
			<line class="st2" x1="59.42" y1="411.57" x2="87.73" y2="411.57"/>
			<line class="st2" x1="59.42" y1="405.15" x2="87.73" y2="405.15"/>
			<line class="st2" x1="59.42" y1="398.72" x2="87.73" y2="398.72"/>
			<line class="st2" x1="59.42" y1="392.29" x2="87.73" y2="392.29"/>
			<line class="st2" x1="58.93" y1="385.86" x2="87.24" y2="385.86"/>
			<line class="st2" x1="58.93" y1="379.44" x2="87.24" y2="379.44"/>
		</g>
	</g>
	<g>
		<g>
			<path d="M54.79,347.12v-14.7h4.06c5.18,0,7.77,2.39,7.77,7.17c0,2.27-0.72,4.09-2.16,5.47c-1.44,1.38-3.37,2.07-5.78,2.07H54.79z
				 M56.51,333.98v11.59h2.19c1.93,0,3.43-0.52,4.5-1.55c1.07-1.03,1.61-2.49,1.61-4.39c0-3.77-2-5.65-6.01-5.65H56.51z"/>
			<path d="M76.8,347.12h-1.68v-1.64h-0.04c-0.73,1.26-1.81,1.89-3.23,1.89c-1.05,0-1.86-0.28-2.46-0.83
				c-0.59-0.55-0.89-1.29-0.89-2.21c0-1.96,1.16-3.1,3.47-3.42l3.15-0.44c0-1.79-0.72-2.68-2.16-2.68c-1.26,0-2.41,0.43-3.42,1.29
				v-1.72c1.03-0.66,2.22-0.98,3.57-0.98c2.47,0,3.7,1.31,3.7,3.92V347.12z M75.12,341.81l-2.53,0.35c-0.78,0.11-1.37,0.3-1.76,0.58
				c-0.4,0.28-0.59,0.77-0.59,1.47c0,0.51,0.18,0.93,0.55,1.26c0.37,0.33,0.85,0.49,1.46,0.49c0.83,0,1.52-0.29,2.07-0.88
				c0.54-0.58,0.81-1.32,0.81-2.22V341.81z"/>
			<path d="M84.84,347.02c-0.4,0.22-0.92,0.33-1.57,0.33c-1.84,0-2.76-1.03-2.76-3.08v-6.21h-1.8v-1.44h1.8v-2.56l1.68-0.54v3.11
				h2.65v1.44H82.2v5.92c0,0.71,0.12,1.21,0.36,1.51s0.64,0.45,1.19,0.45c0.42,0,0.79-0.12,1.1-0.35V347.02z"/>
			<path d="M94.6,347.12h-1.68v-1.64h-0.04c-0.73,1.26-1.81,1.89-3.23,1.89c-1.05,0-1.86-0.28-2.46-0.83
				c-0.59-0.55-0.89-1.29-0.89-2.21c0-1.96,1.16-3.1,3.47-3.42l3.15-0.44c0-1.79-0.72-2.68-2.16-2.68c-1.26,0-2.41,0.43-3.42,1.29
				v-1.72c1.03-0.66,2.22-0.98,3.57-0.98c2.47,0,3.7,1.31,3.7,3.92V347.12z M92.92,341.81l-2.53,0.35c-0.78,0.11-1.37,0.3-1.76,0.58
				c-0.4,0.28-0.59,0.77-0.59,1.47c0,0.51,0.18,0.93,0.55,1.26c0.37,0.33,0.85,0.49,1.46,0.49c0.83,0,1.52-0.29,2.07-0.88
				c0.54-0.58,0.81-1.32,0.81-2.22V341.81z"/>
		</g>
	</g>
</g>
<g>
	<g>
		<path d="M204.15,292.56c0-3.42,2.6-5.38,5.69-5.38c1.66,0,2.88,0.67,3.72,1.49l-0.86,1.11c-0.84-0.71-1.72-1.15-2.79-1.15
			c-2.35,0-3.97,1.57-3.97,3.93c0,2.33,1.6,3.88,3.93,3.88c1.26,0,2.31-0.57,3.15-1.28l0.78,1.13c-1.13,1.01-2.54,1.6-4.05,1.6
			C206.54,297.89,204.15,295.94,204.15,292.56z"/>
		<path d="M216.56,296.29l0.8-1.16c1.18,0.84,2.56,1.39,4.43,1.39c1.72,0,2.56-0.71,2.56-1.58c0-0.78-0.4-1.32-3.17-1.89
			c-2.67-0.55-3.99-1.45-3.99-2.98c0-1.64,1.45-2.9,4.24-2.9c1.55,0,3.11,0.61,4.12,1.3l-0.84,1.11c-0.94-0.65-2.12-1.07-3.42-1.07
			c-1.72,0-2.35,0.69-2.35,1.47c0,0.88,0.88,1.26,2.98,1.7c3.38,0.74,4.2,1.58,4.2,3.15c0,1.66-1.62,3.04-4.54,3.04
			C219.58,297.89,217.8,297.15,216.56,296.29z"/>
		<path d="M229.1,292.51c0-3.32,2.48-5.33,5.21-5.33c2.94,0,4.66,1.91,4.66,4.79c0,0.4-0.04,0.78-0.08,1.05h-8.63v-1.34h7.6
			l-0.44,0.48c0-2.42-1.2-3.61-3.07-3.61c-1.89,0-3.53,1.43-3.53,3.97c0,2.65,1.72,3.99,3.99,3.99c1.22,0,2.18-0.38,3.11-0.97
			l0.63,1.13c-1.01,0.67-2.31,1.22-3.95,1.22C231.53,297.89,229.1,295.92,229.1,292.51z"/>
		<path d="M241.48,287.43h1.39l0.15,1.34h0.04c0.52-0.95,1.15-1.6,2.33-1.6c1.01,0,1.64,0.59,1.93,1.76
			c0.59-1.09,1.22-1.76,2.39-1.76c1.43,0,2.27,1.11,2.27,3.15v7.31h-1.72v-7.18c0-1.18-0.34-1.79-1.09-1.79
			c-0.71,0-1.09,0.53-1.64,1.58v7.39h-1.6v-7.18c0-1.18-0.29-1.79-1.05-1.79c-0.71,0-1.18,0.53-1.68,1.58v7.39h-1.72V287.43z"/>
		<path d="M257.23,291.8c0-4.05,1.78-7.26,4.7-9.53l0.97,0.88c-2.81,2.37-4.12,5.12-4.12,8.65s1.3,6.28,4.12,8.65l-0.97,0.88
			C259.02,299.07,257.23,295.85,257.23,291.8z"/>
		<path d="M270.06,296.11c0-1.05,0.76-1.79,1.7-1.79s1.7,0.73,1.7,1.79c0,1.07-0.76,1.78-1.7,1.78S270.06,297.18,270.06,296.11z"/>
		<path d="M279.33,292.56c0-3.32,2.2-5.38,4.62-5.38c1.22,0,2.16,0.48,3.07,1.3h0.04l-0.08-1.87v-3.93h1.74v14.95h-1.43l-0.15-1.34
			h-0.06c-0.84,0.86-2.06,1.6-3.34,1.6C281.09,297.89,279.33,295.96,279.33,292.56z M286.97,294.91v-5.08
			c-0.92-0.86-1.78-1.18-2.67-1.18c-1.76,0-3.19,1.55-3.19,3.88c0,2.44,1.13,3.88,3,3.88C285.12,296.42,286.07,295.92,286.97,294.91
			z"/>
		<path d="M292.35,294.99c0-2.29,2.14-3.4,7.41-3.82c-0.06-1.39-0.73-2.56-2.71-2.56c-1.32,0-2.62,0.63-3.57,1.22l-0.69-1.18
			c1.05-0.67,2.77-1.47,4.56-1.47c2.79,0,4.16,1.66,4.16,4.2v6.26h-1.45l-0.15-1.39h-0.06c-1.11,0.88-2.58,1.64-4.01,1.64
			C293.92,297.89,292.35,296.82,292.35,294.99z M299.76,294.97v-2.64c-4.37,0.34-5.69,1.2-5.69,2.54c0,1.16,1.05,1.62,2.23,1.62
			C297.45,296.48,298.58,295.94,299.76,294.97z"/>
		<path d="M307.59,293.67v-4.83h-2.9v-1.3l2.96-0.11l0.23-3.28h1.45v3.28h5v1.41h-5v4.85c0,1.83,0.61,2.77,2.58,2.77
			c0.94,0,1.7-0.19,2.44-0.46l0.38,1.28c-0.92,0.34-1.91,0.61-3.19,0.61C308.56,297.89,307.59,296.19,307.59,293.67z"/>
		<path d="M317.55,294.99c0-2.29,2.14-3.4,7.41-3.82c-0.06-1.39-0.73-2.56-2.71-2.56c-1.32,0-2.62,0.63-3.57,1.22l-0.69-1.18
			c1.05-0.67,2.77-1.47,4.56-1.47c2.79,0,4.16,1.66,4.16,4.2v6.26h-1.45l-0.15-1.39h-0.06c-1.11,0.88-2.58,1.64-4.01,1.64
			C319.12,297.89,317.55,296.82,317.55,294.99z M324.96,294.97v-2.64c-4.37,0.34-5.69,1.2-5.69,2.54c0,1.16,1.05,1.62,2.23,1.62
			C322.65,296.48,323.78,295.94,324.96,294.97z"/>
		<path d="M332.58,301.02c1.79-0.8,2.67-1.93,2.65-3.67l-0.38-1.93l1.18,1.66c-0.34,0.38-0.76,0.48-1.18,0.48
			c-0.9,0-1.64-0.52-1.64-1.58c0-1.03,0.78-1.6,1.68-1.6c1.24,0,1.89,1.03,1.89,2.69c0,2.46-1.39,4.18-3.7,5.04L332.58,301.02z"/>
		<path d="M358.26,296.11c0-1.05,0.76-1.79,1.7-1.79s1.7,0.73,1.7,1.79c0,1.07-0.76,1.78-1.7,1.78S358.26,297.18,358.26,296.11z"/>
		<path d="M367.48,287.43h1.39l0.15,1.34h0.04c0.52-0.95,1.15-1.6,2.33-1.6c1.01,0,1.64,0.59,1.93,1.76
			c0.59-1.09,1.22-1.76,2.39-1.76c1.43,0,2.27,1.11,2.27,3.15v7.31h-1.72v-7.18c0-1.18-0.34-1.79-1.09-1.79
			c-0.71,0-1.09,0.53-1.64,1.58v7.39h-1.6v-7.18c0-1.18-0.29-1.79-1.05-1.79c-0.71,0-1.18,0.53-1.68,1.58v7.39h-1.72V287.43z"/>
		<path d="M380.12,292.56c0-3.42,2.35-5.38,5.04-5.38s5.04,1.95,5.04,5.38c0,3.38-2.35,5.33-5.04,5.33S380.12,295.94,380.12,292.56z
			 M388.42,292.56c0-2.35-1.3-3.93-3.25-3.93s-3.25,1.57-3.25,3.93c0,2.33,1.3,3.88,3.25,3.88S388.42,294.89,388.42,292.56z"/>
		<path d="M392.73,292.56c0-3.32,2.2-5.38,4.62-5.38c1.22,0,2.16,0.48,3.07,1.3h0.04l-0.08-1.87v-3.93h1.74v14.95h-1.43l-0.15-1.34
			h-0.06c-0.84,0.86-2.06,1.6-3.34,1.6C394.49,297.89,392.73,295.96,392.73,292.56z M400.37,294.91v-5.08
			c-0.92-0.86-1.78-1.18-2.67-1.18c-1.76,0-3.19,1.55-3.19,3.88c0,2.44,1.13,3.88,3,3.88C398.52,296.42,399.46,295.92,400.37,294.91
			z"/>
		<path d="M405.49,292.51c0-3.32,2.48-5.33,5.21-5.33c2.94,0,4.66,1.91,4.66,4.79c0,0.4-0.04,0.78-0.08,1.05h-8.63v-1.34h7.6
			l-0.44,0.48c0-2.42-1.2-3.61-3.07-3.61c-1.89,0-3.53,1.43-3.53,3.97c0,2.65,1.72,3.99,3.99,3.99c1.22,0,2.18-0.38,3.11-0.97
			l0.63,1.13c-1.01,0.67-2.31,1.22-3.95,1.22C407.93,297.89,405.49,295.92,405.49,292.51z"/>
		<path d="M421.83,294.21V284.1h-3.61v-1.41h5.35v11.65c0,1.47,0.8,2.1,2.02,2.1c0.59,0,1.22-0.15,1.91-0.46l0.44,1.3
			c-0.94,0.4-1.62,0.61-2.73,0.61C423.03,297.89,421.83,296.63,421.83,294.21z"/>
		<path d="M433.38,301.02c1.78-0.8,2.67-1.93,2.65-3.67l-0.38-1.93l1.18,1.66c-0.34,0.38-0.76,0.48-1.18,0.48
			c-0.9,0-1.64-0.52-1.64-1.58c0-1.03,0.78-1.6,1.68-1.6c1.24,0,1.89,1.03,1.89,2.69c0,2.46-1.39,4.18-3.7,5.04L433.38,301.02z"/>
		<path d="M459.06,296.11c0-1.05,0.76-1.79,1.7-1.79s1.7,0.73,1.7,1.79c0,1.07-0.76,1.78-1.7,1.78S459.06,297.18,459.06,296.11z"/>
		<path d="M471.66,296.11c0-1.05,0.76-1.79,1.7-1.79s1.7,0.73,1.7,1.79c0,1.07-0.76,1.78-1.7,1.78S471.66,297.18,471.66,296.11z"/>
		<path d="M484.26,296.11c0-1.05,0.76-1.79,1.7-1.79s1.7,0.73,1.7,1.79c0,1.07-0.76,1.78-1.7,1.78S484.26,297.18,484.26,296.11z"/>
		<path d="M494.82,300.45c2.81-2.37,4.12-5.12,4.12-8.65s-1.3-6.28-4.12-8.65l0.97-0.88c2.92,2.27,4.7,5.48,4.7,9.53
			s-1.79,7.26-4.7,9.53L494.82,300.45z"/>
	</g>
</g>
<g>
	<g>
		<path d="M568.76,293.4c0-3.72,2.96-6.21,6.15-6.21c1.79,0,3.11,0.86,3.84,1.83l-1.05,0.92c-0.74-0.92-1.68-1.38-3-1.38
			c-2.1,0-4.3,2.06-4.3,4.66c0,2.23,1.38,3.32,3.28,3.32c1.2,0,2.31-0.57,3.25-1.41l0.65,1.11c-1.07,0.99-2.58,1.66-4.12,1.66
			C570.8,297.89,568.76,296.38,568.76,293.4z"/>
		<path d="M580.73,295.41l1.13-0.92c0.82,1.28,2,1.97,3.57,1.97c1.72,0,3-0.97,3-2.54c0-1.05-0.65-1.7-1.7-2.31l-1.57-0.94
			c-1.2-0.69-2.25-1.74-2.25-3.34c0-2.12,1.78-3.72,4.24-3.72c1.79,0,3.25,0.9,4.07,2.04l-1.09,0.92c-0.67-0.86-1.7-1.55-3.07-1.55
			c-1.47,0-2.46,1.03-2.46,2.16c0,1.05,0.74,1.66,1.6,2.18l1.66,0.99c1.3,0.82,2.25,1.76,2.25,3.42c0,2.58-2.06,4.12-4.68,4.12
			C583.23,297.89,581.68,296.92,580.73,295.41z"/>
		<path d="M596.57,283.86h8.48l-0.27,1.39h-6.84l-0.88,4.45h5.71l-0.27,1.39h-5.71l-1.05,5.17h7.03l-0.27,1.39h-8.67L596.57,283.86z
			"/>
		<path d="M608.22,283.86h1.97l0.8,6.24l0.13,2.04h0.08l0.92-2.02l3.44-6.26h1.95l-2.73,13.77h-1.53l1.64-8.1
			c0.21-1.05,0.71-2.73,1.03-3.82h-0.08c-0.23,0.46-0.94,1.89-1.36,2.67l-2.94,5.52h-1.34l-0.71-5.42
			c-0.06-0.44-0.21-2.29-0.29-2.77h-0.08c-0.13,1.22-0.29,2.86-0.46,3.65l-1.68,8.27h-1.49L608.22,283.86z"/>
		<path d="M621.24,283.86h3.72c2.58,0,4.35,0.9,4.35,3.28c0,3.02-2.58,4.66-5.58,4.66h-2.44l-1.16,5.84h-1.66L621.24,283.86z
			 M623.55,290.48c2.6,0,4.09-1.24,4.09-3.19c0-1.51-1.05-2.1-3.07-2.1h-1.97l-1.03,5.29H623.55z M624.92,290.88l2.79,6.76h-1.85
			l-2.37-6.09L624.92,290.88z"/>
		<path d="M631.68,293.48c0-3.67,2.73-6.3,5.82-6.3c2.5,0,3.88,1.66,3.88,3.93c0,0.71-0.17,1.55-0.27,1.83h-8.19l0.21-1.26h7.29
			l-0.67,0.32c0.08-0.29,0.13-0.63,0.13-0.95c0-1.6-0.94-2.58-2.46-2.58c-1.97,0-4.14,1.97-4.14,4.93c0,2.06,1.22,3.21,3.06,3.21
			c1.34,0,2.54-0.57,3.49-1.32l0.61,1.09c-1.03,0.82-2.62,1.51-4.41,1.51C633.38,297.89,631.68,296.34,631.68,293.48z"/>
		<path d="M644.11,296.02l0.94-1.03c0.99,1.11,2.39,1.64,3.86,1.64c1.43,0,2.48-0.5,2.48-1.62c0-0.99-0.99-1.37-2.69-1.93
			c-2.12-0.71-3.07-1.58-3.07-3c0-1.95,1.74-2.9,3.82-2.9c1.95,0,3.4,0.8,4.26,1.66l-0.9,1.01c-0.84-0.73-2.02-1.41-3.53-1.41
			c-1.32,0-2.12,0.55-2.12,1.45c0,0.94,0.88,1.36,2.52,1.93c1.91,0.63,3.23,1.32,3.23,2.98c0,2.21-1.91,3.09-4.3,3.09
			C646.86,297.89,645.1,297.15,644.11,296.02z"/>
		<path d="M656.73,295.35c0-0.59,0.06-1.11,0.19-1.68l1.26-6.24h1.62l-1.22,6.07c-0.1,0.52-0.19,0.94-0.19,1.41
			c0,1.01,0.57,1.57,1.62,1.57c1.36,0,2.73-0.92,4.12-2.46l1.32-6.59h1.64l-2.04,10.2h-1.34l0.27-2.08h-0.08
			c-1.22,1.2-2.73,2.33-4.54,2.33C657.55,297.89,656.73,296.88,656.73,295.35z"/>
		<path d="M672.25,295.16c0-0.34,0.04-0.69,0.15-1.11l2.1-10.06h-3.38l0.27-1.3h4.98l-2.37,11.42c-0.06,0.29-0.1,0.61-0.1,0.92
			c0,1.05,0.61,1.49,1.53,1.49c0.67,0,1.26-0.17,2-0.55l0.4,1.24c-0.9,0.44-1.83,0.67-2.83,0.67
			C673.4,297.89,672.25,296.97,672.25,295.16z"/>
		<path d="M684.09,294.97c0-0.44,0.06-0.84,0.17-1.32l1.01-4.91h-2.96l0.23-1.2l3.06-0.11l0.88-3.28h1.34l-0.67,3.28h5.02l-0.27,1.3
			h-5.04l-1.03,4.96c-0.08,0.38-0.1,0.65-0.1,0.92c0,1.3,0.73,1.91,1.89,1.91c1.01,0,1.91-0.32,2.65-0.74l0.52,1.18
			c-0.88,0.55-2.16,0.92-3.59,0.92C685.06,297.89,684.09,296.71,684.09,294.97z"/>
		<path d="M694.51,296.02l0.95-1.03c0.99,1.11,2.39,1.64,3.86,1.64c1.43,0,2.48-0.5,2.48-1.62c0-0.99-0.99-1.37-2.69-1.93
			c-2.12-0.71-3.07-1.58-3.07-3c0-1.95,1.74-2.9,3.82-2.9c1.95,0,3.4,0.8,4.26,1.66l-0.9,1.01c-0.84-0.73-2.02-1.41-3.53-1.41
			c-1.32,0-2.12,0.55-2.12,1.45c0,0.94,0.88,1.36,2.52,1.93c1.91,0.63,3.23,1.32,3.23,2.98c0,2.21-1.91,3.09-4.3,3.09
			C697.26,297.89,695.5,297.15,694.51,296.02z"/>
	</g>
</g>
<g>
	<g>
		<g>
			<path d="M801.21,42.49c0-2.29,2.14-3.4,7.41-3.82c-0.06-1.39-0.74-2.56-2.71-2.56c-1.32,0-2.63,0.63-3.57,1.22l-0.69-1.18
				c1.05-0.67,2.77-1.47,4.56-1.47c2.79,0,4.16,1.66,4.16,4.2v6.26h-1.45l-0.15-1.39h-0.06c-1.11,0.88-2.58,1.64-4.01,1.64
				C802.79,45.38,801.21,44.31,801.21,42.49z M808.62,42.47v-2.65c-4.37,0.34-5.69,1.2-5.69,2.54c0,1.15,1.05,1.62,2.23,1.62
				C806.31,43.98,807.45,43.43,808.62,42.47z"/>
			<path d="M813.62,43.79l0.8-1.15c1.18,0.84,2.56,1.39,4.43,1.39c1.72,0,2.56-0.71,2.56-1.57c0-0.78-0.4-1.32-3.17-1.89
				c-2.67-0.55-3.99-1.45-3.99-2.98c0-1.64,1.45-2.9,4.24-2.9c1.55,0,3.11,0.61,4.12,1.3l-0.84,1.11c-0.94-0.65-2.12-1.07-3.42-1.07
				c-1.72,0-2.35,0.69-2.35,1.47c0,0.88,0.88,1.26,2.98,1.7c3.38,0.73,4.2,1.57,4.2,3.15c0,1.66-1.62,3.04-4.54,3.04
				C816.64,45.38,814.86,44.65,813.62,43.79z"/>
			<path d="M826.22,43.79l0.8-1.15c1.18,0.84,2.56,1.39,4.43,1.39c1.72,0,2.56-0.71,2.56-1.57c0-0.78-0.4-1.32-3.17-1.89
				c-2.67-0.55-3.99-1.45-3.99-2.98c0-1.64,1.45-2.9,4.24-2.9c1.55,0,3.11,0.61,4.12,1.3l-0.84,1.11c-0.94-0.65-2.12-1.07-3.42-1.07
				c-1.72,0-2.35,0.69-2.35,1.47c0,0.88,0.88,1.26,2.98,1.7c3.38,0.73,4.2,1.57,4.2,3.15c0,1.66-1.62,3.04-4.54,3.04
				C829.24,45.38,827.46,44.65,826.22,43.79z"/>
			<path d="M838.76,40.01c0-3.32,2.48-5.33,5.21-5.33c2.94,0,4.66,1.91,4.66,4.79c0,0.4-0.04,0.78-0.08,1.05h-8.63v-1.34h7.6
				l-0.44,0.48c0-2.41-1.2-3.61-3.07-3.61c-1.89,0-3.53,1.43-3.53,3.97c0,2.65,1.72,3.99,3.99,3.99c1.22,0,2.18-0.38,3.11-0.97
				l0.63,1.13c-1.01,0.67-2.31,1.22-3.95,1.22C841.19,45.38,838.76,43.41,838.76,40.01z"/>
			<path d="M851.42,43.79l0.8-1.15c1.18,0.84,2.56,1.39,4.43,1.39c1.72,0,2.56-0.71,2.56-1.57c0-0.78-0.4-1.32-3.17-1.89
				c-2.67-0.55-3.99-1.45-3.99-2.98c0-1.64,1.45-2.9,4.24-2.9c1.55,0,3.11,0.61,4.12,1.3l-0.84,1.11c-0.95-0.65-2.12-1.07-3.42-1.07
				c-1.72,0-2.35,0.69-2.35,1.47c0,0.88,0.88,1.26,2.98,1.7c3.38,0.73,4.2,1.57,4.2,3.15c0,1.66-1.62,3.04-4.54,3.04
				C854.45,45.38,852.66,44.65,851.42,43.79z"/>
			<path d="M864.02,43.79l0.8-1.15c1.18,0.84,2.56,1.39,4.43,1.39c1.72,0,2.56-0.71,2.56-1.57c0-0.78-0.4-1.32-3.17-1.89
				c-2.67-0.55-3.99-1.45-3.99-2.98c0-1.64,1.45-2.9,4.24-2.9c1.55,0,3.11,0.61,4.12,1.3l-0.84,1.11c-0.95-0.65-2.12-1.07-3.42-1.07
				c-1.72,0-2.35,0.69-2.35,1.47c0,0.88,0.88,1.26,2.98,1.7c3.38,0.73,4.2,1.57,4.2,3.15c0,1.66-1.62,3.04-4.54,3.04
				C867.04,45.38,865.26,44.65,864.02,43.79z"/>
			<path d="M879.5,39.3c0-4.05,1.78-7.26,4.7-9.53l0.97,0.88c-2.81,2.37-4.12,5.12-4.12,8.65s1.3,6.28,4.12,8.65l-0.97,0.88
				C881.28,46.56,879.5,43.35,879.5,39.3z"/>
			<path d="M890.29,47.95c2.81-2.37,4.12-5.12,4.12-8.65s-1.3-6.28-4.12-8.65l0.97-0.88c2.92,2.27,4.7,5.48,4.7,9.53
				s-1.78,7.26-4.7,9.53L890.29,47.95z"/>
			<path d="M806.14,86.74h-4.72v-1.41h6.47v10.2h-1.74V86.74z M805.45,81.84c0-0.8,0.59-1.34,1.39-1.34s1.39,0.55,1.39,1.34
				c0,0.82-0.59,1.34-1.39,1.34S805.45,82.66,805.45,81.84z"/>
			<path d="M814.08,85.33h1.43l0.15,1.72h0.08c1.07-1.11,2.25-1.97,3.84-1.97c2.42,0,3.53,1.43,3.53,4.12v6.34h-1.74v-6.11
				c0-1.93-0.67-2.83-2.33-2.83c-1.22,0-2.04,0.61-3.21,1.83v7.12h-1.74V85.33z"/>
			<path d="M826.89,85.43l2.96-0.1h5.94v1.41h-8.9V85.43z M829.81,84.47c0-2.48,1.3-4.14,4.12-4.14c1.01,0,1.97,0.19,2.94,0.59
				l-0.4,1.3c-0.84-0.36-1.49-0.48-2.37-0.48c-1.83,0-2.56,1.03-2.56,2.67v11.13h-1.72V84.47z"/>
			<path d="M838.76,90.41c0-3.32,2.48-5.33,5.21-5.33c2.94,0,4.66,1.91,4.66,4.79c0,0.4-0.04,0.78-0.08,1.05h-8.63v-1.34h7.6
				l-0.44,0.48c0-2.41-1.2-3.61-3.07-3.61c-1.89,0-3.53,1.43-3.53,3.97c0,2.65,1.72,3.99,3.99,3.99c1.22,0,2.18-0.38,3.11-0.97
				l0.63,1.13c-1.01,0.67-2.31,1.22-3.95,1.22C841.19,95.78,838.76,93.81,838.76,90.41z"/>
			<path d="M852.97,85.33h1.45l0.17,2.41h0.04c1.07-1.66,2.67-2.67,4.56-2.67c0.76,0,1.39,0.1,2.02,0.42l-0.4,1.49
				c-0.71-0.23-1.09-0.34-1.89-0.34c-1.53,0-2.98,0.78-4.2,2.92v5.96h-1.74V85.33z"/>
			<path d="M866.9,89.7c0-4.05,1.78-7.26,4.7-9.53l0.97,0.88c-2.81,2.37-4.12,5.12-4.12,8.65s1.3,6.28,4.12,8.65l-0.97,0.88
				C868.68,96.96,866.9,93.75,866.9,89.7z"/>
			<path d="M877.69,98.35c2.81-2.37,4.12-5.12,4.12-8.65s-1.3-6.28-4.12-8.65l0.97-0.88c2.92,2.27,4.7,5.48,4.7,9.53
				s-1.78,7.26-4.7,9.53L877.69,98.35z"/>
			<path d="M801.48,135.73h1.43l0.15,1.3h0.06c0.95-0.9,2.29-1.55,3.53-1.55c2.75,0,4.22,2.04,4.22,5.21c0,3.46-2.18,5.5-4.64,5.5
				c-0.94,0-2.12-0.48-3.04-1.32h-0.04l0.08,1.93v3.44h-1.74V135.73z M809.08,140.68c0-2.25-0.84-3.74-2.88-3.74
				c-0.9,0-1.95,0.46-2.98,1.51v5.08c0.95,0.86,2.02,1.18,2.71,1.18C807.74,144.72,809.08,143.2,809.08,140.68z"/>
			<path d="M815.18,135.73h1.45l0.17,2.41h0.04c1.07-1.66,2.67-2.67,4.56-2.67c0.76,0,1.38,0.11,2.02,0.42l-0.4,1.49
				c-0.71-0.23-1.09-0.34-1.89-0.34c-1.53,0-2.98,0.78-4.2,2.92v5.96h-1.74V135.73z"/>
			<path d="M826.16,140.81c0-3.32,2.48-5.33,5.21-5.33c2.94,0,4.66,1.91,4.66,4.79c0,0.4-0.04,0.78-0.08,1.05h-8.63v-1.34h7.6
				l-0.44,0.48c0-2.42-1.2-3.61-3.07-3.61c-1.89,0-3.53,1.43-3.53,3.97c0,2.65,1.72,3.99,3.99,3.99c1.22,0,2.18-0.38,3.11-0.97
				l0.63,1.13c-1.01,0.67-2.31,1.22-3.95,1.22C828.59,146.19,826.16,144.21,826.16,140.81z"/>
			<path d="M838.59,140.85c0-3.32,2.2-5.38,4.62-5.38c1.22,0,2.16,0.48,3.07,1.3h0.04l-0.08-1.87v-3.93h1.74v14.95h-1.43l-0.15-1.34
				h-0.06c-0.84,0.86-2.06,1.6-3.34,1.6C840.35,146.19,838.59,144.25,838.59,140.85z M846.23,143.2v-5.08
				c-0.92-0.86-1.78-1.18-2.67-1.18c-1.76,0-3.19,1.55-3.19,3.88c0,2.44,1.13,3.88,3,3.88C844.39,144.72,845.33,144.21,846.23,143.2
				z"/>
			<path d="M856.54,137.14h-4.72v-1.41h6.47v10.2h-1.74V137.14z M855.85,132.24c0-0.8,0.59-1.34,1.39-1.34s1.39,0.55,1.39,1.34
				c0,0.82-0.59,1.34-1.39,1.34S855.85,133.06,855.85,132.24z"/>
			<path d="M864.21,140.85c0-3.42,2.6-5.38,5.69-5.38c1.66,0,2.88,0.67,3.72,1.49l-0.86,1.11c-0.84-0.71-1.72-1.15-2.79-1.15
				c-2.35,0-3.97,1.57-3.97,3.93c0,2.33,1.6,3.88,3.93,3.88c1.26,0,2.31-0.57,3.15-1.28l0.78,1.13c-1.13,1.01-2.54,1.6-4.05,1.6
				C866.6,146.19,864.21,144.23,864.21,140.85z"/>
			<path d="M879.46,141.97v-4.83h-2.9v-1.3l2.96-0.11l0.23-3.28h1.45v3.28h5v1.41h-5v4.85c0,1.83,0.61,2.77,2.58,2.77
				c0.94,0,1.7-0.19,2.44-0.46l0.38,1.28c-0.92,0.34-1.91,0.61-3.19,0.61C880.42,146.19,879.46,144.48,879.46,141.97z"/>
			<path d="M892.1,140.1c0-4.05,1.78-7.26,4.7-9.53l0.97,0.88c-2.81,2.37-4.12,5.12-4.12,8.65s1.3,6.28,4.12,8.65l-0.97,0.88
				C893.88,147.36,892.1,144.15,892.1,140.1z"/>
			<path d="M902.89,148.75c2.81-2.37,4.12-5.12,4.12-8.65s-1.3-6.28-4.12-8.65l0.97-0.88c2.92,2.27,4.7,5.48,4.7,9.53
				s-1.79,7.26-4.7,9.53L902.89,148.75z"/>
			<path d="M800.64,194.99l1.31-1.93c1.28,0.79,2.71,1.23,4.2,1.23c1.15,0,1.65-0.38,1.65-0.89c0-0.58-0.5-0.79-2.55-1.22
				c-2.83-0.61-3.96-1.65-3.96-3.25c0-1.94,1.81-3.26,4.79-3.26c1.86,0,3.43,0.73,4.51,1.42l-1.38,1.86c-1.05-0.64-2.26-1-3.41-1
				c-0.96,0-1.44,0.34-1.44,0.83c0,0.58,0.64,0.71,2.41,1.11c3.21,0.72,4.11,1.63,4.11,3.33c0,1.89-1.8,3.36-5.14,3.36
				C803.88,196.58,801.96,195.86,800.64,194.99z"/>
			<path d="M813.43,192.35v-6.43h3.09v6.03c0,1.38,0.37,2,1.52,2c0.77,0,1.31-0.27,2.02-1.19v-6.85h3.09v10.42h-2.52l-0.22-1.5
				h-0.08c-0.92,1.06-2.01,1.75-3.51,1.75C814.44,196.58,813.43,194.98,813.43,192.35z"/>
			<path d="M825.46,185.92h2.32l0.22,1.28h0.07c0.39-0.84,1.05-1.54,2.25-1.54c0.9,0,1.56,0.59,1.81,1.7c0.38-0.94,1.11-1.7,2.3-1.7
				c1.49,0,2.33,1.28,2.33,3.36v7.31h-2.93v-7.09c0-0.65-0.15-0.95-0.56-0.95c-0.4,0-0.67,0.33-0.96,1.01v7.03h-2.41v-7.09
				c0-0.65-0.19-0.95-0.6-0.95c-0.38,0-0.65,0.33-0.92,1.01v7.03h-2.93V185.92z"/>
			<path d="M838.06,185.92h2.32l0.22,1.28h0.07c0.39-0.84,1.05-1.54,2.25-1.54c0.9,0,1.56,0.59,1.81,1.7c0.38-0.94,1.11-1.7,2.3-1.7
				c1.49,0,2.33,1.28,2.33,3.36v7.31h-2.93v-7.09c0-0.65-0.15-0.95-0.56-0.95c-0.4,0-0.67,0.33-0.96,1.01v7.03h-2.41v-7.09
				c0-0.65-0.19-0.95-0.6-0.95c-0.38,0-0.65,0.33-0.92,1.01v7.03h-2.93V185.92z"/>
			<path d="M851.22,193.44c0-2.33,1.93-3.52,6.85-3.82c-0.11-0.93-0.81-1.5-2.21-1.5c-1,0-2,0.39-3.18,0.97l-1.1-2.02
				c1.44-0.82,3.1-1.41,4.87-1.41c2.93,0,4.7,1.52,4.7,4.71v5.95h-2.52l-0.22-1.17h-0.08c-1.05,0.79-2.35,1.43-3.69,1.43
				C852.53,196.58,851.22,195.2,851.22,193.44z M858.07,193.2v-1.71c-3.06,0.15-3.89,0.82-3.89,1.71c0,0.67,0.56,1,1.44,1
				C856.55,194.19,857.33,193.77,858.07,193.2z"/>
			<path d="M864.95,185.92h2.54l0.24,2.28h0.07c1.03-1.7,2.56-2.53,4.22-2.53c0.91,0,1.4,0.15,2,0.42l-0.63,2.6
				c-0.65-0.2-1.08-0.31-1.84-0.31c-1.29,0-2.62,0.67-3.52,2.54v5.42h-3.09V185.92z"/>
			<path d="M880.97,188.34h-4.19v-2.42h7.28v10.42h-3.09V188.34z M880.32,182.4c0-1.13,0.86-1.92,2.05-1.92s2.05,0.79,2.05,1.92
				c0,1.14-0.86,1.89-2.05,1.89S880.32,183.54,880.32,182.4z"/>
			<path d="M889.21,194.68l5.43-6.34h-4.79v-2.42h9.09v1.65l-5.46,6.34h5.6v2.43h-9.87V194.68z"/>
			<path d="M901.49,191.12c0-3.41,2.63-5.45,5.42-5.45c3.21,0,4.9,2.17,4.9,5c0,0.57-0.09,1.13-0.13,1.38h-7.9v-2.07h5.81
				l-0.49,0.59c0-1.67-0.73-2.55-2.1-2.55c-1.53,0-2.53,1.03-2.53,3.1c0,2.16,1.18,3.11,3.2,3.11c0.95,0,1.76-0.26,2.68-0.72
				l1.02,1.86c-1.19,0.76-2.73,1.22-4.13,1.22C904.01,196.58,901.49,194.58,901.49,191.12z"/>
			<path d="M916.72,190.5c0-3.95,1.71-7.17,4.45-9.59l1.71,1.37c-2.5,2.43-3.57,4.91-3.57,8.23s1.08,5.79,3.57,8.23l-1.71,1.37
				C918.43,197.67,916.72,194.44,916.72,190.5z"/>
			<path d="M928.18,198.72c2.5-2.43,3.57-4.91,3.57-8.23s-1.08-5.79-3.57-8.23l1.71-1.37c2.74,2.42,4.45,5.65,4.45,9.59
				s-1.71,7.17-4.45,9.59L928.18,198.72z"/>
			<path d="M800.58,236.53h1.78l2.35,5.77c0.4,1.03,0.78,2.04,1.13,3.02h0.08c0.36-0.99,0.69-2,1.11-3.02l2.35-5.77h1.68l-4.24,10.2
				h-1.95L800.58,236.53z"/>
			<path d="M813.56,241.61c0-3.32,2.48-5.33,5.21-5.33c2.94,0,4.66,1.91,4.66,4.79c0,0.4-0.04,0.78-0.08,1.05h-8.63v-1.34h7.6
				l-0.44,0.48c0-2.41-1.2-3.61-3.07-3.61c-1.89,0-3.53,1.43-3.53,3.97c0,2.65,1.72,3.99,3.99,3.99c1.22,0,2.18-0.38,3.11-0.97
				l0.63,1.13c-1.01,0.67-2.31,1.22-3.95,1.22C815.99,246.98,813.56,245.01,813.56,241.61z"/>
			<path d="M827.78,236.53h1.45l0.17,2.42h0.04c1.07-1.66,2.67-2.67,4.56-2.67c0.76,0,1.38,0.1,2.02,0.42l-0.4,1.49
				c-0.71-0.23-1.09-0.34-1.89-0.34c-1.53,0-2.98,0.78-4.2,2.92v5.96h-1.74V236.53z"/>
			<path d="M843.95,237.94h-4.72v-1.41h6.47v10.2h-1.74V237.94z M843.25,233.04c0-0.8,0.59-1.34,1.39-1.34s1.39,0.55,1.39,1.34
				c0,0.82-0.59,1.34-1.39,1.34S843.25,233.86,843.25,233.04z"/>
			<path d="M852.09,236.63l2.96-0.1H861v1.41h-8.9V236.63z M855.01,235.67c0-2.48,1.3-4.14,4.12-4.14c1.01,0,1.97,0.19,2.94,0.59
				l-0.4,1.3c-0.84-0.36-1.49-0.48-2.37-0.48c-1.83,0-2.56,1.03-2.56,2.67v11.13h-1.72V235.67z"/>
			<path d="M863.94,250.91l0.36-1.38c0.27,0.08,0.61,0.15,0.92,0.15c1.43,0,2.29-0.9,2.79-2.16l0.29-0.76l-4.75-10.23h1.76
				l2.48,5.63c0.4,0.9,0.84,1.97,1.26,2.96h0.08c0.36-0.96,0.76-2.04,1.09-2.96l2.2-5.63h1.68l-4.51,11.04
				c-0.76,2.02-1.99,3.55-4.32,3.55C864.8,251.12,864.29,251.04,863.94,250.91z"/>
			<path d="M879.5,240.9c0-4.05,1.78-7.26,4.7-9.53l0.97,0.88c-2.81,2.37-4.12,5.12-4.12,8.65s1.3,6.28,4.12,8.65l-0.97,0.88
				C881.28,248.16,879.5,244.95,879.5,240.9z"/>
			<path d="M890.29,249.55c2.81-2.37,4.12-5.12,4.12-8.65s-1.3-6.28-4.12-8.65l0.97-0.88c2.92,2.27,4.7,5.48,4.7,9.53
				s-1.78,7.26-4.7,9.53L890.29,249.55z"/>
		</g>
	</g>
</g>
<g>
	<g>
		<path d="M803.86,359.46v-4.83h-2.9v-1.3l2.96-0.1l0.23-3.28h1.45v3.28h5v1.41h-5v4.85c0,1.83,0.61,2.77,2.58,2.77
			c0.95,0,1.7-0.19,2.44-0.46l0.38,1.28c-0.92,0.34-1.91,0.61-3.19,0.61C804.82,363.69,803.86,361.98,803.86,359.46z"/>
		<path d="M813.56,358.31c0-3.32,2.48-5.33,5.21-5.33c2.94,0,4.66,1.91,4.66,4.79c0,0.4-0.04,0.78-0.08,1.05h-8.63v-1.34h7.6
			l-0.44,0.48c0-2.41-1.2-3.61-3.07-3.61c-1.89,0-3.53,1.43-3.53,3.97c0,2.65,1.72,3.99,3.99,3.99c1.22,0,2.18-0.38,3.11-0.97
			l0.63,1.13c-1.01,0.67-2.31,1.22-3.95,1.22C815.99,363.69,813.56,361.71,813.56,358.31z"/>
		<path d="M826.22,362.09l0.8-1.16c1.18,0.84,2.56,1.39,4.43,1.39c1.72,0,2.56-0.71,2.56-1.57c0-0.78-0.4-1.32-3.17-1.89
			c-2.67-0.55-3.99-1.45-3.99-2.98c0-1.64,1.45-2.9,4.24-2.9c1.55,0,3.11,0.61,4.12,1.3l-0.84,1.11c-0.94-0.65-2.12-1.07-3.42-1.07
			c-1.72,0-2.35,0.69-2.35,1.47c0,0.88,0.88,1.26,2.98,1.7c3.38,0.74,4.2,1.58,4.2,3.15c0,1.66-1.62,3.04-4.54,3.04
			C829.24,363.69,827.46,362.95,826.22,362.09z"/>
		<path d="M841.66,359.46v-4.83h-2.9v-1.3l2.96-0.1l0.23-3.28h1.45v3.28h5v1.41h-5v4.85c0,1.83,0.61,2.77,2.58,2.77
			c0.94,0,1.7-0.19,2.44-0.46l0.38,1.28c-0.92,0.34-1.91,0.61-3.19,0.61C842.62,363.69,841.66,361.98,841.66,359.46z"/>
		<path d="M850.94,356.48c0-4.45,2.18-7.08,5.29-7.08s5.29,2.62,5.29,7.08c0,4.51-2.18,7.2-5.29,7.2S850.94,361,850.94,356.48z
			 M859.69,356.48c0-3.46-1.38-5.52-3.46-5.52s-3.46,2.06-3.46,5.52c0,3.53,1.38,5.65,3.46,5.65S859.69,360.01,859.69,356.48z"/>
		<path d="M864.04,349.66h2.14l1.93,5.88l0.67,2.23h0.08l0.65-2.23l1.95-5.88h2.14v13.77h-1.68v-6.89c0-1.34,0.21-3.7,0.29-4.87
			h-0.06l-0.78,2.69l-1.97,5.42h-1.26l-1.93-5.42l-0.8-2.69h-0.04c0.13,1.18,0.29,3.53,0.29,4.87v6.89h-1.64V349.66z"/>
		<path d="M877.92,349.66h8.46v1.49h-6.7v4.64h5.67v1.49h-5.67v6.15h-1.76V349.66z"/>
		<path d="M892.1,357.6c0-4.05,1.78-7.26,4.7-9.53l0.97,0.88c-2.81,2.37-4.12,5.12-4.12,8.65s1.3,6.28,4.12,8.65l-0.97,0.88
			C893.88,364.86,892.1,361.65,892.1,357.6z"/>
		<path d="M902.89,366.25c2.81-2.37,4.12-5.12,4.12-8.65s-1.3-6.28-4.12-8.65l0.97-0.88c2.92,2.27,4.7,5.48,4.7,9.53
			c0,4.05-1.79,7.26-4.7,9.53L902.89,366.25z"/>
		<path d="M803.86,384.67v-4.83h-2.9v-1.3l2.96-0.1l0.23-3.28h1.45v3.28h5v1.41h-5v4.85c0,1.83,0.61,2.77,2.58,2.77
			c0.95,0,1.7-0.19,2.44-0.46l0.38,1.28c-0.92,0.34-1.91,0.61-3.19,0.61C804.82,388.89,803.86,387.18,803.86,384.67z"/>
		<path d="M813.56,383.51c0-3.32,2.48-5.33,5.21-5.33c2.94,0,4.66,1.91,4.66,4.79c0,0.4-0.04,0.78-0.08,1.05h-8.63v-1.34h7.6
			l-0.44,0.48c0-2.41-1.2-3.61-3.07-3.61c-1.89,0-3.53,1.43-3.53,3.97c0,2.65,1.72,3.99,3.99,3.99c1.22,0,2.18-0.38,3.11-0.97
			l0.63,1.13c-1.01,0.67-2.31,1.22-3.95,1.22C815.99,388.89,813.56,386.91,813.56,383.51z"/>
		<path d="M826.22,387.29l0.8-1.16c1.18,0.84,2.56,1.39,4.43,1.39c1.72,0,2.56-0.71,2.56-1.57c0-0.78-0.4-1.32-3.17-1.89
			c-2.67-0.55-3.99-1.45-3.99-2.98c0-1.64,1.45-2.9,4.24-2.9c1.55,0,3.11,0.61,4.12,1.3l-0.84,1.11c-0.94-0.65-2.12-1.07-3.42-1.07
			c-1.72,0-2.35,0.69-2.35,1.47c0,0.88,0.88,1.26,2.98,1.7c3.38,0.74,4.2,1.58,4.2,3.15c0,1.66-1.62,3.04-4.54,3.04
			C829.24,388.89,827.46,388.15,826.22,387.29z"/>
		<path d="M841.66,384.67v-4.83h-2.9v-1.3l2.96-0.1l0.23-3.28h1.45v3.28h5v1.41h-5v4.85c0,1.83,0.61,2.77,2.58,2.77
			c0.94,0,1.7-0.19,2.44-0.46l0.38,1.28c-0.92,0.34-1.91,0.61-3.19,0.61C842.62,388.89,841.66,387.18,841.66,384.67z"/>
		<path d="M851.44,374.86h2.14l1.93,5.88l0.67,2.23h0.08l0.65-2.23l1.95-5.88h2.14v13.77h-1.68v-6.89c0-1.34,0.21-3.7,0.29-4.87
			h-0.06l-0.78,2.69l-1.97,5.42h-1.26l-1.93-5.42l-0.8-2.69h-0.04c0.13,1.18,0.29,3.53,0.29,4.87v6.89h-1.64V374.86z"/>
		<path d="M863.64,381.75c0-4.45,2.54-7.14,6.11-7.14c1.83,0,3.02,0.86,3.8,1.68l-1.01,1.11c-0.65-0.69-1.47-1.24-2.79-1.24
			c-2.58,0-4.26,2.12-4.26,5.54c0,3.46,1.53,5.63,4.22,5.63c0.97,0,1.87-0.29,2.37-0.8v-3.59h-2.73v-1.45h4.37v5.79
			c-0.86,0.88-2.33,1.6-4.12,1.6C866.14,388.89,863.64,386.24,863.64,381.75z"/>
		<path d="M876.96,374.86h3.4c4.14,0,6.38,2.46,6.38,6.82c0,4.39-2.25,6.95-6.3,6.95h-3.48V374.86z M880.23,387.18
			c3.13,0,4.68-2.02,4.68-5.5c0-3.46-1.55-5.38-4.68-5.38h-1.51v10.88H880.23z"/>
		<path d="M892.1,382.8c0-4.05,1.78-7.26,4.7-9.53l0.97,0.88c-2.81,2.37-4.12,5.12-4.12,8.65s1.3,6.28,4.12,8.65l-0.97,0.88
			C893.88,390.06,892.1,386.85,892.1,382.8z"/>
		<path d="M902.89,391.45c2.81-2.37,4.12-5.12,4.12-8.65s-1.3-6.28-4.12-8.65l0.97-0.88c2.92,2.27,4.7,5.48,4.7,9.53
			c0,4.05-1.79,7.26-4.7,9.53L902.89,391.45z"/>
		<path d="M803.86,409.87v-4.83h-2.9v-1.3l2.96-0.11l0.23-3.28h1.45v3.28h5v1.41h-5v4.85c0,1.83,0.61,2.77,2.58,2.77
			c0.95,0,1.7-0.19,2.44-0.46l0.38,1.28c-0.92,0.34-1.91,0.61-3.19,0.61C804.82,414.08,803.86,412.38,803.86,409.87z"/>
		<path d="M813.56,408.71c0-3.32,2.48-5.33,5.21-5.33c2.94,0,4.66,1.91,4.66,4.79c0,0.4-0.04,0.78-0.08,1.05h-8.63v-1.34h7.6
			l-0.44,0.48c0-2.42-1.2-3.61-3.07-3.61c-1.89,0-3.53,1.43-3.53,3.97c0,2.65,1.72,3.99,3.99,3.99c1.22,0,2.18-0.38,3.11-0.97
			l0.63,1.13c-1.01,0.67-2.31,1.22-3.95,1.22C815.99,414.08,813.56,412.11,813.56,408.71z"/>
		<path d="M826.22,412.49l0.8-1.15c1.18,0.84,2.56,1.39,4.43,1.39c1.72,0,2.56-0.71,2.56-1.58c0-0.78-0.4-1.32-3.17-1.89
			c-2.67-0.55-3.99-1.45-3.99-2.98c0-1.64,1.45-2.9,4.24-2.9c1.55,0,3.11,0.61,4.12,1.3l-0.84,1.11c-0.94-0.65-2.12-1.07-3.42-1.07
			c-1.72,0-2.35,0.69-2.35,1.47c0,0.88,0.88,1.26,2.98,1.7c3.38,0.73,4.2,1.57,4.2,3.15c0,1.66-1.62,3.04-4.54,3.04
			C829.24,414.08,827.46,413.35,826.22,412.49z"/>
		<path d="M841.66,409.87v-4.83h-2.9v-1.3l2.96-0.11l0.23-3.28h1.45v3.28h5v1.41h-5v4.85c0,1.83,0.61,2.77,2.58,2.77
			c0.94,0,1.7-0.19,2.44-0.46l0.38,1.28c-0.92,0.34-1.91,0.61-3.19,0.61C842.62,414.08,841.66,412.38,841.66,409.87z"/>
		<path d="M851.44,400.06h2.14l1.93,5.88l0.67,2.23h0.08l0.65-2.23l1.95-5.88h2.14v13.77h-1.68v-6.89c0-1.34,0.21-3.7,0.29-4.87
			h-0.06l-0.78,2.69l-1.97,5.42h-1.26l-1.93-5.42l-0.8-2.69h-0.04c0.13,1.18,0.29,3.53,0.29,4.87v6.89h-1.64V400.06z"/>
		<path d="M864.53,412.34h3.42v-10.79h-3.42v-1.49h8.61v1.49h-3.42v10.79h3.42v1.49h-8.61V412.34z"/>
		<path d="M876.49,406.95c0-4.43,2.58-7.14,6.17-7.14c1.66,0,2.96,0.8,3.78,1.68l-1.01,1.11c-0.71-0.76-1.62-1.24-2.77-1.24
			c-2.63,0-4.35,2.12-4.35,5.54c0,3.46,1.72,5.63,4.35,5.63c1.26,0,2.22-0.55,3.09-1.51l1.01,1.07c-1.07,1.26-2.44,1.99-4.26,1.99
			C879.1,414.08,876.49,411.44,876.49,406.95z"/>
		<path d="M888.74,406.88c0-4.45,2.18-7.08,5.29-7.08s5.29,2.63,5.29,7.08c0,4.51-2.18,7.2-5.29,7.2S888.74,411.4,888.74,406.88z
			 M897.49,406.88c0-3.46-1.38-5.52-3.46-5.52s-3.46,2.06-3.46,5.52c0,3.53,1.38,5.65,3.46,5.65S897.49,410.41,897.49,406.88z"/>
		<path d="M901.84,400.06h2.14l1.93,5.88l0.67,2.23h0.08l0.65-2.23l1.95-5.88h2.14v13.77h-1.68v-6.89c0-1.34,0.21-3.7,0.29-4.87
			h-0.06l-0.78,2.69l-1.97,5.42h-1.26l-1.93-5.42l-0.8-2.69h-0.04c0.13,1.18,0.29,3.53,0.29,4.87v6.89h-1.64V400.06z"/>
		<path d="M917.3,408c0-4.05,1.79-7.26,4.7-9.53l0.97,0.88c-2.81,2.37-4.12,5.12-4.12,8.65s1.3,6.28,4.12,8.65l-0.97,0.88
			C919.08,415.26,917.3,412.05,917.3,408z"/>
		<path d="M928.09,416.65c2.81-2.37,4.12-5.12,4.12-8.65s-1.3-6.28-4.12-8.65l0.97-0.88c2.92,2.27,4.7,5.48,4.7,9.53
			c0,4.05-1.79,7.26-4.7,9.53L928.09,416.65z"/>
		<path d="M803.86,435.06v-4.83h-2.9v-1.3l2.96-0.11l0.23-3.28h1.45v3.28h5v1.41h-5v4.85c0,1.83,0.61,2.77,2.58,2.77
			c0.95,0,1.7-0.19,2.44-0.46l0.38,1.28c-0.92,0.34-1.91,0.61-3.19,0.61C804.82,439.29,803.86,437.58,803.86,435.06z"/>
		<path d="M813.56,433.91c0-3.32,2.48-5.33,5.21-5.33c2.94,0,4.66,1.91,4.66,4.79c0,0.4-0.04,0.78-0.08,1.05h-8.63v-1.34h7.6
			l-0.44,0.48c0-2.41-1.2-3.61-3.07-3.61c-1.89,0-3.53,1.43-3.53,3.97c0,2.65,1.72,3.99,3.99,3.99c1.22,0,2.18-0.38,3.11-0.97
			l0.63,1.13c-1.01,0.67-2.31,1.22-3.95,1.22C815.99,439.29,813.56,437.31,813.56,433.91z"/>
		<path d="M826.22,437.69l0.8-1.15c1.18,0.84,2.56,1.38,4.43,1.38c1.72,0,2.56-0.71,2.56-1.57c0-0.78-0.4-1.32-3.17-1.89
			c-2.67-0.55-3.99-1.45-3.99-2.98c0-1.64,1.45-2.9,4.24-2.9c1.55,0,3.11,0.61,4.12,1.3l-0.84,1.11c-0.94-0.65-2.12-1.07-3.42-1.07
			c-1.72,0-2.35,0.69-2.35,1.47c0,0.88,0.88,1.26,2.98,1.7c3.38,0.73,4.2,1.57,4.2,3.15c0,1.66-1.62,3.04-4.54,3.04
			C829.24,439.29,827.46,438.55,826.22,437.69z"/>
		<path d="M841.66,435.06v-4.83h-2.9v-1.3l2.96-0.11l0.23-3.28h1.45v3.28h5v1.41h-5v4.85c0,1.83,0.61,2.77,2.58,2.77
			c0.94,0,1.7-0.19,2.44-0.46l0.38,1.28c-0.92,0.34-1.91,0.61-3.19,0.61C842.62,439.29,841.66,437.58,841.66,435.06z"/>
		<path d="M851.59,425.26h1.78v5.75h5.71v-5.75h1.78v13.77h-1.78v-6.47h-5.71v6.47h-1.78V425.26z"/>
		<path d="M864.21,436.39c0-2.29,2.14-3.4,7.41-3.82c-0.06-1.39-0.73-2.56-2.71-2.56c-1.32,0-2.62,0.63-3.57,1.22l-0.69-1.18
			c1.05-0.67,2.77-1.47,4.56-1.47c2.79,0,4.16,1.66,4.16,4.2v6.26h-1.45l-0.15-1.39h-0.06c-1.11,0.88-2.58,1.64-4.01,1.64
			C865.79,439.29,864.21,438.21,864.21,436.39z M871.62,436.37v-2.65c-4.37,0.34-5.69,1.2-5.69,2.54c0,1.15,1.05,1.62,2.23,1.62
			C869.31,437.88,870.45,437.33,871.62,436.37z"/>
		<path d="M876.75,435.17v-6.34h1.74v6.11c0,1.91,0.67,2.83,2.35,2.83c1.18,0,2.04-0.55,3.17-1.87v-7.08h1.74v10.2h-1.45l-0.15-1.79
			h-0.08c-1.03,1.2-2.23,2.04-3.8,2.04C877.86,439.29,876.75,437.86,876.75,435.17z"/>
		<path d="M889.22,437.69l0.8-1.15c1.18,0.84,2.56,1.38,4.43,1.38c1.72,0,2.56-0.71,2.56-1.57c0-0.78-0.4-1.32-3.17-1.89
			c-2.67-0.55-3.99-1.45-3.99-2.98c0-1.64,1.45-2.9,4.24-2.9c1.55,0,3.11,0.61,4.12,1.3l-0.84,1.11c-0.95-0.65-2.12-1.07-3.42-1.07
			c-1.72,0-2.35,0.69-2.35,1.47c0,0.88,0.88,1.26,2.98,1.7c3.38,0.73,4.2,1.57,4.2,3.15c0,1.66-1.62,3.04-4.54,3.04
			C892.24,439.29,890.46,438.55,889.22,437.69z"/>
		<path d="M901.55,428.83h1.39l0.15,1.34h0.04c0.52-0.94,1.15-1.6,2.33-1.6c1.01,0,1.64,0.59,1.93,1.76
			c0.59-1.09,1.22-1.76,2.39-1.76c1.43,0,2.27,1.11,2.27,3.15v7.31h-1.72v-7.18c0-1.18-0.34-1.78-1.09-1.78
			c-0.71,0-1.09,0.52-1.64,1.57v7.39H906v-7.18c0-1.18-0.29-1.78-1.05-1.78c-0.71,0-1.18,0.52-1.68,1.57v7.39h-1.72V428.83z"/>
		<path d="M914.61,436.39c0-2.29,2.14-3.4,7.41-3.82c-0.06-1.39-0.74-2.56-2.71-2.56c-1.32,0-2.63,0.63-3.57,1.22l-0.69-1.18
			c1.05-0.67,2.77-1.47,4.56-1.47c2.79,0,4.16,1.66,4.16,4.2v6.26h-1.45l-0.15-1.39h-0.06c-1.11,0.88-2.58,1.64-4.01,1.64
			C916.18,439.29,914.61,438.21,914.61,436.39z M922.02,436.37v-2.65c-4.37,0.34-5.69,1.2-5.69,2.54c0,1.15,1.05,1.62,2.23,1.62
			C919.71,437.88,920.85,437.33,922.02,436.37z"/>
		<path d="M927.48,428.83h1.43l0.15,1.72h0.08c1.07-1.11,2.25-1.97,3.84-1.97c2.42,0,3.53,1.43,3.53,4.12v6.34h-1.74v-6.11
			c0-1.93-0.67-2.83-2.33-2.83c-1.22,0-2.04,0.61-3.21,1.83v7.12h-1.74V428.83z"/>
		<path d="M942.5,433.2c0-4.05,1.79-7.26,4.7-9.53l0.97,0.88c-2.81,2.37-4.12,5.12-4.12,8.65s1.3,6.28,4.12,8.65l-0.97,0.88
			C944.28,440.46,942.5,437.25,942.5,433.2z"/>
		<path d="M953.29,441.85c2.81-2.37,4.12-5.12,4.12-8.65s-1.3-6.28-4.12-8.65l0.97-0.88c2.92,2.27,4.7,5.48,4.7,9.53
			s-1.79,7.26-4.7,9.53L953.29,441.85z"/>
		<path d="M804.13,462.7c0-1.05,0.76-1.79,1.7-1.79s1.7,0.73,1.7,1.79c0,1.07-0.76,1.78-1.7,1.78S804.13,463.77,804.13,462.7z"/>
		<path d="M816.73,462.7c0-1.05,0.76-1.79,1.7-1.79s1.7,0.73,1.7,1.79c0,1.07-0.76,1.78-1.7,1.78S816.73,463.77,816.73,462.7z"/>
		<path d="M829.33,462.7c0-1.05,0.76-1.79,1.7-1.79s1.7,0.73,1.7,1.79c0,1.07-0.76,1.78-1.7,1.78S829.33,463.77,829.33,462.7z"/>
	</g>
</g>
<g>
	<line class="st0" x1="139.8" y1="224.14" x2="195" y2="277.8"/>
	<g>
		<line class="st1" x1="139.8" y1="224.14" x2="194.22" y2="277.04"/>
		<g>
			<polygon points="189,277.67 189.02,276.67 193.95,276.78 193.7,271.85 194.7,271.8 195,277.8 			"/>
		</g>
	</g>
</g>
<g>
	<line class="st0" x1="139.8" y1="371.13" x2="195" y2="317.48"/>
	<g>
		<line class="st1" x1="139.8" y1="371.13" x2="194.22" y2="318.23"/>
		<g>
			<polygon points="194.7,323.47 193.7,323.42 193.95,318.5 189.02,318.61 189,317.61 195,317.48 			"/>
		</g>
	</g>
</g>
<g>
	<line class="st0" x1="508.6" y1="293.4" x2="557.56" y2="293.4"/>
	<g>
		<line class="st1" x1="508.6" y1="293.4" x2="512.6" y2="293.4"/>
		<line class="st3" x1="520.57" y1="293.4" x2="548.48" y2="293.4"/>
		<line class="st1" x1="552.47" y1="293.4" x2="556.47" y2="293.4"/>
		<g>
			<polygon points="553.16,297.49 552.48,296.76 556.09,293.4 552.48,290.04 553.16,289.31 557.56,293.4 			"/>
		</g>
	</g>
</g>
<g>
	<line class="st0" x1="711.4" y1="277.8" x2="768.5" y2="96.07"/>
	<g>
		<line class="st1" x1="711.4" y1="277.8" x2="768.17" y2="97.1"/>
		<g>
			<polygon points="771.08,101.49 770.18,101.92 768.06,97.47 763.78,99.91 763.28,99.04 768.5,96.07 			"/>
		</g>
	</g>
</g>
<g>
	<line class="st0" x1="768.5" y1="45.13" x2="711.4" y2="277.8"/>
	<g>
		<line class="st1" x1="768.24" y1="46.19" x2="711.4" y2="277.8"/>
		<g>
			<polygon points="763.48,48.43 764.03,49.27 768.15,46.56 770.55,50.87 771.42,50.38 768.5,45.13 			"/>
		</g>
	</g>
</g>
<line class="st2" x1="782" y1="357.6" x2="782" y2="440.4"/>
<line class="st2" x1="792.53" y1="357.6" x2="782" y2="357.6"/>
<line class="st2" x1="782" y1="378.3" x2="792.53" y2="378.3"/>
<line class="st2" x1="782" y1="399" x2="792.53" y2="399"/>
<line class="st2" x1="782" y1="419.7" x2="792.53" y2="419.7"/>
<line class="st4" x1="782" y1="462.4" x2="782" y2="440.4"/>
</svg>
