<?xml version="1.0" encoding="UTF-8" standalone="no"?>
<!-- Generator: Adobe Illustrator 23.0.1, SVG Export Plug-In . SVG Version: 6.00 Build 0)  -->

<svg
   version="1.1"
   id="Ebene_1"
   x="0px"
   y="0px"
   viewBox="0 0 588.28 552.28001"
   xml:space="preserve"
   sodipodi:docname="cSEMsticker.svg"
   width="588.28003"
   height="552.28003"
   inkscape:version="1.4.3 (0d15f75042, 2025-12-25)"
   xmlns:inkscape="http://www.inkscape.org/namespaces/inkscape"
   xmlns:sodipodi="http://sodipodi.sourceforge.net/DTD/sodipodi-0.dtd"
   xmlns="http://www.w3.org/2000/svg"
   xmlns:svg="http://www.w3.org/2000/svg"><defs
   id="defs34" /><sodipodi:namedview
   id="namedview34"
   pagecolor="#ffffff"
   bordercolor="#000000"
   borderopacity="0.25"
   inkscape:showpageshadow="2"
   inkscape:pageopacity="0.0"
   inkscape:pagecheckerboard="0"
   inkscape:deskcolor="#d1d1d1"
   inkscape:zoom="1.3350913"
   inkscape:cx="297.73246"
   inkscape:cy="420.94501"
   inkscape:window-width="2560"
   inkscape:window-height="1370"
   inkscape:window-x="2560"
   inkscape:window-y="1440"
   inkscape:window-maximized="1"
   inkscape:current-layer="Ebene_1" />
<style
   type="text/css"
   id="style1">
	.st0{fill:#D8DADC;stroke:#2764AE;stroke-width:20;stroke-linejoin:round;stroke-miterlimit:10;}
	.st1{opacity:0.5;fill:#FFFFFF;stroke:#2764AE;stroke-width:5;stroke-linejoin:round;stroke-miterlimit:10;}
	.st2{fill:#2764AE;}
	.st3{opacity:0.5;}
	.st4{fill:none;stroke:#2764AE;stroke-width:3;stroke-linejoin:round;}
	.st5{fill:none;stroke:#2764AE;stroke-width:20;stroke-linejoin:round;stroke-miterlimit:10;}
</style>
<polygon
   class="st0"
   points="427.82,39.1 157.6,39.1 22.49,273.12 157.6,507.14 427.82,507.14 562.93,273.12 "
   id="polygon1" />
<rect
   x="118.25"
   y="185.25"
   class="st1"
   width="56.689999"
   height="56.689999"
   id="rect1" />
<rect
   x="373.32999"
   y="145.12"
   class="st1"
   width="56.689999"
   height="56.689999"
   id="rect2" />
<rect
   x="118.25"
   y="304.29999"
   class="st1"
   width="56.689999"
   height="56.689999"
   id="rect3" />
<polygon
   class="st1"
   points="174.94,480.03 141.95,480.03 118.25,438.99 118.25,423.34 174.94,423.34 "
   id="polygon3" />
<polygon
   class="st1"
   points="174.94,66.21 141.95,66.21 118.25,107.25 118.25,122.9 174.94,122.9 "
   id="polygon4" />
<path
   class="st1"
   d="m 356.95,507.14 c 0,-39.14 31.73,-70.87 70.87,-70.87 12.91,0 25.01,3.45 35.44,9.48 l -35.44,61.38 h -70.87"
   id="path4" />
<path
   class="st1"
   d="m 356.95,39.1 c 0,39.14 31.73,70.87 70.87,70.87 12.91,0 25.01,-3.45 35.44,-9.48 L 427.82,39.1 h -70.87"
   id="path5" />
<polygon
   class="st1"
   points="303.73,224.02 247.03,224.02 218.69,273.12 247.03,322.22 303.73,322.22 332.07,273.12 "
   id="polygon5" />
<g
   id="g9">
	<path
   class="st2"
   d="m 378.88,298.62 c -4.48,1.36 -8.34,2.04 -11.6,2.04 -5.16,0 -9.43,-1.91 -12.83,-5.73 -3.4,-3.82 -5.1,-8.64 -5.1,-14.45 0,-6.21 1.68,-11.05 5.04,-14.52 3.36,-3.47 8.06,-5.2 14.08,-5.2 2.98,0 6.3,0.41 9.98,1.23 v 5.8 c -3.91,-1.15 -7.09,-1.72 -9.55,-1.72 -3.56,0 -6.4,1.33 -8.53,3.99 -2.13,2.66 -3.19,6.21 -3.19,10.63 0,4.29 1.1,7.76 3.3,10.41 2.2,2.65 5.08,3.97 8.63,3.97 3.16,0 6.41,-0.81 9.76,-2.43 v 5.98 z"
   id="path6" />
	<path
   class="st2"
   d="m 385.84,298.8 v -7.31 c 5.86,2.72 10.69,4.08 14.48,4.08 2.88,0 5.21,-0.77 6.98,-2.3 1.77,-1.54 2.65,-3.53 2.65,-5.99 0,-2.04 -0.58,-3.77 -1.74,-5.2 -1.16,-1.43 -3.3,-3.02 -6.42,-4.78 l -3.59,-2.07 c -4.43,-2.53 -7.55,-4.92 -9.37,-7.15 -1.82,-2.24 -2.72,-4.83 -2.72,-7.79 0,-4.03 1.45,-7.34 4.36,-9.93 2.91,-2.59 6.61,-3.88 11.11,-3.88 4.01,0 8.24,0.67 12.69,2 v 6.75 C 408.79,253.07 404.69,252 402,252 c -2.55,0 -4.66,0.68 -6.33,2.04 -1.67,1.36 -2.5,3.07 -2.5,5.13 0,1.73 0.61,3.27 1.83,4.61 1.22,1.34 3.45,2.93 6.68,4.78 l 3.73,2.11 c 4.5,2.55 7.64,4.97 9.42,7.24 1.78,2.27 2.67,5 2.67,8.19 0,4.52 -1.67,8.16 -4.99,10.9 -3.33,2.74 -7.75,4.11 -13.25,4.11 -3.5,-0.03 -7.98,-0.79 -13.42,-2.31 z"
   id="path7" />
	<path
   class="st2"
   d="m 427.82,299.78 v -52.03 h 29.07 v 5.52 H 435.2 v 16.7 h 18.18 v 5.45 H 435.2 v 18.84 h 23.2 v 5.52 z"
   id="path8" />
	<path
   class="st2"
   d="m 466.84,299.78 v -52.03 h 10.19 L 491.47,288 506.3,247.75 h 9.17 v 52.03 h -6.93 v -42.26 l -14.33,38.78 h -7.13 l -13.91,-38.88 v 42.36 z"
   id="path9" />
</g>
<g
   class="st3"
   id="g12">
	<g
   id="g11">
		<line
   class="st4"
   x1="174.94"
   y1="122.9"
   x2="243.25"
   y2="218.72"
   id="line9" />
		<g
   id="g10">
			<polygon
   class="st2"
   points="228.79,215.08 242.27,217.35 244.53,203.86 249.29,210.55 247.03,224.02 233.56,221.76 "
   id="polygon9" />
		</g>
	</g>
</g>
<g
   class="st3"
   id="g15">
	<g
   id="g14">
		<line
   class="st4"
   x1="303.73001"
   y1="224.02"
   x2="382.32001"
   y2="101.68"
   id="line12" />
		<g
   id="g13">
			<polygon
   class="st2"
   points="384.31,116.46 381.41,103.1 368.05,106.01 372.49,99.11 385.84,96.2 388.75,109.55 "
   id="polygon12" />
		</g>
	</g>
</g>
<g
   class="st3"
   id="g18">
	<g
   id="g17">
		<line
   class="st4"
   x1="410.60999"
   y1="107.87"
   x2="403.20001"
   y2="138.78"
   id="line15" />
		<g
   id="g16">
			<polygon
   class="st2"
   points="396.45,125.49 403.59,137.14 415.24,129.99 413.33,137.97 401.68,145.12 394.53,133.47 "
   id="polygon15" />
		</g>
	</g>
</g>
<g
   class="st3"
   id="g21">
	<g
   id="g20">
		<line
   class="st4"
   x1="439.34"
   y1="109.04"
   x2="453.04001"
   y2="139.19"
   id="line18" />
		<g
   id="g19">
			<polygon
   class="st2"
   points="439.54,132.85 452.34,137.65 457.14,124.85 460.53,132.32 455.73,145.12 442.94,140.32 "
   id="polygon18" />
		</g>
	</g>
</g>
<g
   class="st3"
   id="g24">
	<g
   id="g23">
		<line
   class="st4"
   x1="385.84"
   y1="450.04001"
   x2="307.25"
   y2="327.70001"
   id="line21" />
		<g
   id="g22">
			<polygon
   class="st2"
   points="321.51,332.03 308.16,329.12 305.25,342.47 300.82,335.57 303.73,322.22 317.08,325.13 "
   id="polygon21" />
		</g>
	</g>
</g>
<g
   class="st3"
   id="g27">
	<g
   id="g26">
		<line
   class="st4"
   x1="174.94"
   y1="423.34"
   x2="243.25"
   y2="327.51999"
   id="line24" />
		<g
   id="g25">
			<polygon
   class="st2"
   points="244.53,342.38 242.27,328.89 228.79,331.16 233.56,324.48 247.03,322.22 249.29,335.7 "
   id="polygon24" />
		</g>
	</g>
</g>
<g
   class="st3"
   id="g30">
	<g
   id="g29">
		<line
   class="st4"
   x1="174.94"
   y1="241.95"
   x2="213.38"
   y2="269.34"
   id="line27" />
		<g
   id="g28">
			<polygon
   class="st2"
   points="198.53,270.62 212.01,268.36 209.74,254.88 216.43,259.64 218.69,273.12 205.21,275.38 "
   id="polygon27" />
		</g>
	</g>
</g>
<g
   class="st3"
   id="g33">
	<g
   id="g32">
		<line
   class="st4"
   x1="174.94"
   y1="304.29999"
   x2="213.38"
   y2="276.89999"
   id="line30" />
		<g
   id="g31">
			<polygon
   class="st2"
   points="209.74,291.36 212.01,277.88 198.53,275.62 205.21,270.86 218.69,273.12 216.43,286.6 "
   id="polygon30" />
		</g>
	</g>
</g>
<polygon
   class="st1"
   points="455.73,145.12 489.02,145.12 512.43,185.65 512.43,201.81 455.73,201.81 "
   id="polygon33" />
<polygon
   class="st5"
   points="427.82,39.1 157.6,39.1 22.49,273.12 157.6,507.14 427.82,507.14 562.93,273.12 "
   id="polygon34" />
</svg>
