<?xml version="1.0" encoding="utf-8"?>
<!-- Generator: Adobe Illustrator 23.0.1, SVG Export Plug-In . SVG Version: 6.00 Build 0)  -->
<svg version="1.1" id="Ebene_1" xmlns="http://www.w3.org/2000/svg" xmlns:xlink="http://www.w3.org/1999/xlink" x="0px" y="0px"
	 viewBox="0 0 595.28 841.89" style="enable-background:new 0 0 595.28 841.89;" xml:space="preserve">
<style type="text/css">
	.st0{fill:#D8DADC;stroke:#2764AE;stroke-width:20;stroke-linejoin:round;stroke-miterlimit:10;}
	.st1{opacity:0.5;fill:#FFFFFF;stroke:#2764AE;stroke-width:5;stroke-linejoin:round;stroke-miterlimit:10;}
	.st2{fill:#2764AE;}
	.st3{opacity:0.5;}
	.st4{fill:none;stroke:#2764AE;stroke-width:3;stroke-linejoin:round;}
	.st5{fill:none;stroke:#2764AE;stroke-width:20;stroke-linejoin:round;stroke-miterlimit:10;}
</style>
<polygon class="st0" points="427.82,39.1 157.6,39.1 22.49,273.12 157.6,507.14 427.82,507.14 562.93,273.12 "/>
<rect x="118.25" y="185.25" class="st1" width="56.69" height="56.69"/>
<rect x="373.33" y="145.12" class="st1" width="56.69" height="56.69"/>
<rect x="118.25" y="304.3" class="st1" width="56.69" height="56.69"/>
<polygon class="st1" points="118.25,438.99 118.25,423.34 174.94,423.34 174.94,480.03 141.95,480.03 "/>
<polygon class="st1" points="118.25,107.25 118.25,122.9 174.94,122.9 174.94,66.21 141.95,66.21 "/>
<path class="st1" d="M356.95,507.14c0-39.14,31.73-70.87,70.87-70.87c12.91,0,25.01,3.45,35.44,9.48l-35.44,61.38H356.95"/>
<path class="st1" d="M356.95,39.1c0,39.14,31.73,70.87,70.87,70.87c12.91,0,25.01-3.45,35.44-9.48L427.82,39.1H356.95"/>
<polygon class="st1" points="303.73,224.02 247.03,224.02 218.69,273.12 247.03,322.22 303.73,322.22 332.07,273.12 "/>
<g>
	<path class="st2" d="M378.88,298.62c-4.48,1.36-8.34,2.04-11.6,2.04c-5.16,0-9.43-1.91-12.83-5.73c-3.4-3.82-5.1-8.64-5.1-14.45
		c0-6.21,1.68-11.05,5.04-14.52c3.36-3.47,8.06-5.2,14.08-5.2c2.98,0,6.3,0.41,9.98,1.23v5.8c-3.91-1.15-7.09-1.72-9.55-1.72
		c-3.56,0-6.4,1.33-8.53,3.99c-2.13,2.66-3.19,6.21-3.19,10.63c0,4.29,1.1,7.76,3.3,10.41s5.08,3.97,8.63,3.97
		c3.16,0,6.41-0.81,9.76-2.43V298.62z"/>
	<path class="st2" d="M385.84,298.8v-7.31c5.86,2.72,10.69,4.08,14.48,4.08c2.88,0,5.21-0.77,6.98-2.3
		c1.77-1.54,2.65-3.53,2.65-5.99c0-2.04-0.58-3.77-1.74-5.2s-3.3-3.02-6.42-4.78l-3.59-2.07c-4.43-2.53-7.55-4.92-9.37-7.15
		c-1.82-2.24-2.72-4.83-2.72-7.79c0-4.03,1.45-7.34,4.36-9.93c2.91-2.59,6.61-3.88,11.11-3.88c4.01,0,8.24,0.67,12.69,2v6.75
		c-5.48-2.16-9.58-3.23-12.27-3.23c-2.55,0-4.66,0.68-6.33,2.04c-1.67,1.36-2.5,3.07-2.5,5.13c0,1.73,0.61,3.27,1.83,4.61
		c1.22,1.34,3.45,2.93,6.68,4.78l3.73,2.11c4.5,2.55,7.64,4.97,9.42,7.24c1.78,2.27,2.67,5,2.67,8.19c0,4.52-1.67,8.16-4.99,10.9
		c-3.33,2.74-7.75,4.11-13.25,4.11C395.76,301.08,391.28,300.32,385.84,298.8z"/>
	<path class="st2" d="M427.82,299.78v-52.03h29.07v5.52H435.2v16.7h18.18v5.45H435.2v18.84h23.2v5.52H427.82z"/>
	<path class="st2" d="M466.84,299.78v-52.03h10.19L491.47,288l14.83-40.25h9.17v52.03h-6.93v-42.26l-14.33,38.78h-7.13l-13.91-38.88
		v42.36H466.84z"/>
</g>
<g class="st3">
	<g>
		<line class="st4" x1="174.94" y1="122.9" x2="245.04" y2="221.23"/>
		<g>
			<polygon class="st2" points="237.43,219.32 244.53,220.51 245.72,213.41 248.22,216.93 247.03,224.02 239.94,222.83 			"/>
		</g>
	</g>
</g>
<g class="st3">
	<g>
		<line class="st4" x1="303.73" y1="224.02" x2="383.99" y2="99.09"/>
		<g>
			<polygon class="st2" points="385.04,106.86 383.51,99.83 376.48,101.37 378.81,97.73 385.84,96.2 387.37,103.23 			"/>
		</g>
	</g>
</g>
<g class="st3">
	<g>
		<line class="st4" x1="410.61" y1="107.87" x2="402.48" y2="141.78"/>
		<g>
			<polygon class="st2" points="398.93,134.79 402.68,140.92 408.82,137.16 407.81,141.36 401.68,145.12 397.92,138.99 			"/>
		</g>
	</g>
</g>
<g class="st3">
	<g>
		<line class="st4" x1="439.34" y1="109.04" x2="454.31" y2="142"/>
		<g>
			<polygon class="st2" points="447.21,138.66 453.95,141.19 456.47,134.45 458.26,138.38 455.73,145.12 449,142.59 			"/>
		</g>
	</g>
</g>
<g class="st3">
	<g>
		<line class="st4" x1="385.84" y1="450.04" x2="305.58" y2="325.1"/>
		<g>
			<polygon class="st2" points="313.09,327.38 306.06,325.85 304.53,332.88 302.2,329.25 303.73,322.22 310.75,323.75 			"/>
		</g>
	</g>
</g>
<g class="st3">
	<g>
		<line class="st4" x1="174.94" y1="423.34" x2="245.04" y2="325.01"/>
		<g>
			<polygon class="st2" points="245.72,332.83 244.53,325.73 237.43,326.92 239.94,323.41 247.03,322.22 248.22,329.31 			"/>
		</g>
	</g>
</g>
<g class="st3">
	<g>
		<line class="st4" x1="174.94" y1="241.95" x2="215.9" y2="271.13"/>
		<g>
			<polygon class="st2" points="208.08,271.8 215.17,270.62 213.98,263.52 217.5,266.03 218.69,273.12 211.59,274.31 			"/>
		</g>
	</g>
</g>
<g class="st3">
	<g>
		<line class="st4" x1="174.94" y1="304.3" x2="215.9" y2="275.11"/>
		<g>
			<polygon class="st2" points="213.98,282.72 215.17,275.63 208.08,274.44 211.59,271.93 218.69,273.12 217.5,280.21 			"/>
		</g>
	</g>
</g>
<polygon class="st1" points="512.43,185.65 512.43,201.81 455.73,201.81 455.73,145.12 489.02,145.12 "/>
<polygon class="st5" points="427.82,39.1 157.6,39.1 22.49,273.12 157.6,507.14 427.82,507.14 562.93,273.12 "/>
</svg>
